<svg width="71" height="71" viewBox="0 0 71 71" fill="none" xmlns="http://www.w3.org/2000/svg">
<path d="M23.0044 46.364L22.4109 58.1404L11.47 66.453L0 46.2331L23.935 4.54706L35.1414 12.2392L35.5108 24.7079L35.405 24.7687L23.0044 46.364Z" fill="#28B446"/>
<path d="M23.9351 4.54706L30.7461 32.8824L35.5108 24.7079L35.1414 8.29453L23.9351 4.54706Z" fill="#219B38"/>
<path d="M47.0632 4.54706L71 46.2331L58.092 52.7615L47.8701 46.2958V46.2331L35.5108 24.7079L23.9351 4.54706H47.0632Z" fill="#FFD837"/>
<path d="M71 46.2331L59.5372 66.322L11.47 66.4529L23.0044 46.364L47.8701 46.2957L71 46.2331Z" fill="#518EF8"/>
<path d="M11.47 66.4529L31.5824 46.3404L23.0044 46.364L11.47 66.4529Z" fill="#3A5BBC"/>
<path d="M71.0001 46.2331L44.7578 40.8125L47.8702 46.2957L71.0001 46.2331Z" fill="#FBBB00"/>
</svg>
