<svg width="77" height="77" viewBox="0 0 77 77" fill="none" xmlns="http://www.w3.org/2000/svg">
<g clip-path="url(#clip0_13_828)">
<path d="M38.5 77C59.7632 77 77 59.7632 77 38.5C77 17.2368 59.7632 0 38.5 0C17.2368 0 0 17.2368 0 38.5C0 59.7632 17.2368 77 38.5 77Z" fill="black"/>
<path fill-rule="evenodd" clip-rule="evenodd" d="M45.6547 14.5466L18.9453 16.5133C16.7925 16.6994 16.0417 18.103 16.0417 19.7858V48.9784C16.0417 50.289 16.5102 51.4103 17.6347 52.9086L23.9134 61.0482C24.9449 62.3588 25.8817 62.6395 27.8516 62.5465L58.8682 60.6744C61.491 60.4883 62.2417 59.2708 62.2417 57.2126V24.3721C62.2417 23.3069 61.8199 23.0005 60.5782 22.0942C60.5076 22.0424 60.437 21.9906 60.3665 21.9386L51.8403 15.9502C49.779 14.4551 48.9352 14.2659 45.6547 14.5466ZM28.5542 23.8331C26.0213 24.0031 25.447 24.0416 24.008 22.8754L20.3505 19.9751C19.9784 19.5997 20.1661 19.1313 21.1013 19.0383L46.7792 17.1678C48.9336 16.9801 50.0581 17.7293 50.9019 18.3838L55.3069 21.5648C55.4946 21.6595 55.9614 22.2193 55.4 22.2193L28.8815 23.8106L28.5542 23.8331ZM25.601 56.9319V29.0515C25.601 27.8339 25.9747 27.2724 27.0993 27.1778L57.5544 25.4004C58.5875 25.3073 59.0559 25.9618 59.0559 27.1778V54.8721C59.0559 56.0897 58.8682 57.1196 57.179 57.2126L28.0361 58.897C26.3501 58.99 25.601 58.4302 25.601 56.9319ZM54.3717 30.5465C54.5578 31.3887 54.3717 32.2309 53.5263 32.3272L52.1211 32.6047V53.1894C50.9019 53.8439 49.779 54.2176 48.8421 54.2176C47.3422 54.2176 46.9653 53.7492 45.8424 52.3472L36.6569 37.9385V51.8788L39.5636 52.5349C39.5636 52.5349 39.5636 54.2192 37.2184 54.2192L30.7536 54.593C30.5675 54.2176 30.7536 53.284 31.4113 53.0963L33.0956 52.6295V34.1976L30.7536 34.0083C30.5675 33.1662 31.0343 31.9502 32.3481 31.8571L39.2829 31.3887L48.8421 45.9867V33.0731L46.4038 32.794C46.2177 31.7625 46.9653 31.015 47.9037 30.9219L54.3717 30.5465Z" fill="white"/>
</g>
<defs>
<clipPath id="clip0_13_828">
<rect width="77" height="77" fill="white"/>
</clipPath>
</defs>
</svg>
