<svg width="17" height="17" viewBox="0 0 17 17" fill="none" xmlns="http://www.w3.org/2000/svg">
<g clip-path="url(#clip0_121_5202)">
<path d="M8.68651 7.50373C10.0072 7.43451 11.2353 7.25001 12.3707 6.95022C13.5062 6.65043 14.3932 6.2491 15.0318 5.74624L15.1063 7.16728C15.1264 7.5518 14.8581 7.92349 14.3014 8.28236C13.7446 8.64123 12.9781 8.94265 12.0018 9.1866C11.0255 9.43055 9.95778 9.5829 8.79865 9.64365C7.63953 9.70439 6.56175 9.66448 5.5653 9.52392C4.56885 9.38335 3.77502 9.16372 3.1838 8.86501C2.59258 8.5663 2.28689 8.22469 2.26674 7.84017L2.19227 6.41913C2.87995 6.85248 3.80407 7.15889 4.9646 7.33836C6.12514 7.51782 7.36577 7.57294 8.68651 7.50373ZM9.02295 13.9235C10.3437 13.8543 11.5718 13.6698 12.7072 13.37C13.8426 13.0702 14.7296 12.6689 15.3682 12.166L15.4427 13.587C15.4629 13.9716 15.1946 14.3433 14.6378 14.7021C14.081 15.061 13.3145 15.3624 12.3382 15.6064C11.3619 15.8503 10.2942 16.0027 9.1351 16.0634C7.97598 16.1242 6.89819 16.0842 5.90175 15.9437C4.9053 15.8031 4.11147 15.5835 3.52025 15.2848C2.92903 14.9861 2.62334 14.6445 2.60319 14.2599L2.52872 12.8389C3.2164 13.2722 4.14051 13.5787 5.30105 13.7581C6.46158 13.9376 7.70222 13.9927 9.02295 13.9235ZM8.85473 10.7136C10.1755 10.6444 11.4035 10.4599 12.539 10.1601C13.6744 9.86031 14.5614 9.45898 15.2 8.95612L15.2745 10.3772C15.2946 10.7617 15.0263 11.1334 14.4696 11.4922C13.9128 11.8511 13.1463 12.1525 12.17 12.3965C11.1937 12.6404 10.126 12.7928 8.96688 12.8535C7.80775 12.9143 6.72997 12.8744 5.73352 12.7338C4.73708 12.5932 3.94324 12.3736 3.35202 12.0749C2.7608 11.7762 2.45512 11.4346 2.43497 11.0501L2.36049 9.62901C3.04818 10.0624 3.97229 10.3688 5.13282 10.5482C6.29336 10.7277 7.534 10.7828 8.85473 10.7136ZM8.35006 1.08396C9.50918 1.02322 10.587 1.06313 11.5834 1.20369C12.5799 1.34426 13.3737 1.56389 13.9649 1.8626C14.5561 2.16131 14.8618 2.50292 14.882 2.88744L14.938 3.9574C14.9582 4.34192 14.6899 4.71361 14.1331 5.07248C13.5764 5.43135 12.8099 5.73277 11.8336 5.97672C10.8573 6.22067 9.78955 6.37302 8.63043 6.43377C7.47131 6.49451 6.39352 6.4546 5.39708 6.31404C4.40063 6.17347 3.6068 5.95384 3.01558 5.65513C2.42436 5.35642 2.11867 5.01481 2.09852 4.63029L2.04245 3.56033C2.02229 3.17581 2.2906 2.80412 2.84736 2.44525C3.40411 2.08638 4.17064 1.78497 5.14693 1.54101C6.12323 1.29706 7.19094 1.14471 8.35006 1.08396Z" fill="white"/>
</g>
<defs>
<clipPath id="clip0_121_5202">
<rect width="15" height="15" fill="white" transform="translate(0.860352 1.47644) rotate(-3)"/>
</clipPath>
</defs>
</svg>
