<svg width="22" height="22" viewBox="0 0 22 22" fill="none" xmlns="http://www.w3.org/2000/svg">
<path fill-rule="evenodd" clip-rule="evenodd" d="M13.315 5.1992L15.8115 5.06836C16.253 5.04523 16.6855 5.19839 17.014 5.49417C17.3425 5.78994 17.54 6.2041 17.5632 6.64552L18.0865 16.6318C18.1096 17.0732 17.9565 17.5058 17.6607 17.8343C17.3649 18.1627 16.9508 18.3603 16.5094 18.3834L6.52306 18.9068C6.08164 18.9299 5.64911 18.7767 5.32062 18.481C4.99213 18.1852 4.79459 17.771 4.77146 17.3296L4.2481 7.34333C4.22496 6.90191 4.37813 6.46938 4.6739 6.14089C4.96968 5.8124 5.38383 5.61485 5.82525 5.59172L8.32183 5.46088C8.28712 4.79875 8.51688 4.14995 8.96054 3.65721C9.4042 3.16448 10.0254 2.86817 10.6876 2.83347C11.3497 2.79877 11.9985 3.02852 12.4912 3.47218C12.984 3.91584 13.2803 4.53707 13.315 5.1992ZM11.6506 5.28643C11.6622 5.50714 11.5856 5.7234 11.4377 5.88765C11.2898 6.05189 11.0827 6.15067 10.862 6.16223C10.6413 6.1738 10.425 6.09722 10.2608 5.94933C10.0965 5.80144 9.99778 5.59437 9.98621 5.37365C9.97464 5.15294 10.0512 4.93668 10.1991 4.77243C10.347 4.60819 10.5541 4.50942 10.7748 4.49785C10.9955 4.48628 11.2118 4.56287 11.376 4.71075C11.5403 4.85864 11.639 5.06572 11.6506 5.28643ZM5.9997 8.92049C5.98814 8.69978 6.06472 8.48351 6.21261 8.31926C6.3605 8.15502 6.56757 8.05625 6.78828 8.04468L15.1102 7.60855C15.3309 7.59698 15.5472 7.67357 15.7114 7.82145C15.8757 7.96934 15.9744 8.17642 15.986 8.39713C15.9976 8.61784 15.921 8.8341 15.7731 8.99835C15.6252 9.16259 15.4181 9.26136 15.1974 9.27293L6.87551 9.70906C6.6548 9.72063 6.43853 9.64405 6.27429 9.49616C6.11004 9.34827 6.01127 9.1412 5.9997 8.92049ZM6.96274 11.3734C6.74203 11.385 6.53495 11.4838 6.38706 11.648C6.23918 11.8123 6.16259 12.0285 6.17416 12.2493C6.18573 12.47 6.2845 12.677 6.44874 12.8249C6.61299 12.9728 6.82925 13.0494 7.04996 13.0378L15.3719 12.6017C15.5926 12.5901 15.7997 12.4914 15.9475 12.3271C16.0954 12.1629 16.172 11.9466 16.1605 11.7259C16.1489 11.5052 16.0501 11.2981 15.8859 11.1502C15.7216 11.0023 15.5054 10.9257 15.2846 10.9373L6.96274 11.3734ZM7.13719 14.7022C6.91648 14.7138 6.7094 14.8125 6.56152 14.9768C6.41363 15.141 6.33704 15.3573 6.34861 15.578C6.36018 15.7987 6.45895 16.0058 6.62319 16.1537C6.78744 16.3016 7.0037 16.3782 7.22442 16.3666L9.72099 16.2358C9.9417 16.2242 10.1488 16.1254 10.2967 15.9612C10.4446 15.7969 10.5211 15.5807 10.5096 15.36C10.498 15.1392 10.3992 14.9322 10.235 14.7843C10.0707 14.6364 9.85447 14.5598 9.63376 14.5714L7.13719 14.7022Z" fill="white"/>
</svg>
