<svg width="52" height="52" viewBox="0 0 52 52" fill="none" xmlns="http://www.w3.org/2000/svg">
<g opacity="0.6">
<path d="M33.9788 30.9319V23.8306C33.9799 23.263 33.8691 22.7007 33.6529 22.1759C33.4367 21.651 33.1192 21.1739 32.7185 20.7718C32.3179 20.3696 31.842 20.0503 31.318 19.8321C30.794 19.6139 30.2321 19.5011 29.6644 19.5H22.3519C21.2055 19.5 20.1061 19.9554 19.2955 20.766C18.4848 21.5767 18.0294 22.6761 18.0294 23.8225V30.9238C17.376 31.219 16.8215 31.6964 16.4324 32.2988C16.0433 32.9012 15.8361 33.6029 15.8357 34.32V40.5438C15.8351 42.3172 16.2982 44.06 17.179 45.5992C18.0598 47.1385 19.3277 48.4207 20.8569 49.3188C21.3444 49.6031 23.1807 50.4481 24.5213 51.0494C24.9995 51.2627 25.5171 51.3729 26.0407 51.3729C26.5642 51.3729 27.0819 51.2627 27.5601 51.0494C28.7219 50.5375 30.2657 49.8306 31.1676 49.3025C32.6903 48.3971 33.9529 47.1133 34.8328 45.5757C35.7126 44.0381 36.1798 42.299 36.1888 40.5275V34.3281C36.187 33.6092 35.9774 32.9062 35.5853 32.3037C35.1932 31.7011 34.6353 31.2248 33.9788 30.9319ZM27.8932 42.3069C27.9373 42.5809 27.9214 42.8613 27.8466 43.1286C27.7717 43.3959 27.6397 43.6438 27.4597 43.8551C27.2797 44.0664 27.056 44.2361 26.804 44.3525C26.5519 44.4689 26.2777 44.5291 26.0001 44.5291C25.7225 44.5291 25.4482 44.4689 25.1962 44.3525C24.9442 44.2361 24.7204 44.0664 24.5404 43.8551C24.3604 43.6438 24.2284 43.3959 24.1536 43.1286C24.0787 42.8613 24.0628 42.5809 24.1069 42.3069L24.4319 40.0644C24.1711 39.8298 23.9666 39.5393 23.8337 39.2147C23.7007 38.8901 23.6427 38.5396 23.6639 38.1894C23.6852 37.8393 23.7852 37.4984 23.9565 37.1923C24.1277 36.8861 24.3659 36.6226 24.6532 36.4212C24.9404 36.2199 25.2694 36.0859 25.6157 36.0294C25.9619 35.9728 26.3164 35.9951 26.6528 36.0946C26.9892 36.1941 27.2988 36.3682 27.5586 36.604C27.8184 36.8397 28.0216 37.131 28.1532 37.4562C28.2664 37.7378 28.3243 38.0385 28.3238 38.3419C28.3249 38.6666 28.2574 38.9878 28.1258 39.2846C27.9942 39.5815 27.8014 39.8472 27.5601 40.0644L27.8932 42.3069ZM22.9288 29.3069L20.9463 29.9325V23.8306C20.9463 23.4635 21.0916 23.1114 21.3504 22.851C21.6092 22.5907 21.9605 22.4434 22.3276 22.4413H29.6401C30.0071 22.4434 30.3585 22.5907 30.6173 22.851C30.8761 23.1114 31.0213 23.4635 31.0213 23.8306V29.9731L29.0388 29.3475C27.0501 28.7224 24.9175 28.7224 22.9288 29.3475V29.3069Z" fill="#3366CC"/>
<path d="M21.6125 6.62185H21.125V11.4969H21.6369C22.0097 11.5096 22.3799 11.4312 22.7155 11.2683C23.0511 11.1055 23.3418 10.8632 23.5625 10.5625C23.8945 10.1141 24.0688 9.56843 24.0581 9.0106C24.0616 8.46636 23.8876 7.9358 23.5625 7.49935C23.3324 7.2066 23.0348 6.97389 22.6953 6.82109C22.3557 6.66829 21.9842 6.59993 21.6125 6.62185ZM31.6875 6.56498H30.875V8.69373H31.6875C31.8657 8.71407 32.0463 8.69634 32.2171 8.64171C32.388 8.58709 32.5454 8.49681 32.6788 8.37685C32.8507 8.16064 32.9374 7.88893 32.9225 7.6131C32.9296 7.47382 32.9088 7.33453 32.8614 7.20338C32.8139 7.07224 32.7408 6.95188 32.6462 6.84935C32.5131 6.74101 32.3599 6.66009 32.1953 6.61129C32.0308 6.56248 31.8582 6.54674 31.6875 6.56498Z" fill="white" fill-opacity="0.6"/>
<path d="M45.7518 0.62561H6.24803C5.35582 0.629897 4.5015 0.986781 3.87137 1.61844C3.24123 2.25009 2.88641 3.10527 2.88428 3.99749V14.0806C2.88427 14.9742 3.23814 15.8315 3.8685 16.4649C4.49887 17.0983 5.35441 17.4563 6.24803 17.4606H45.7518C46.6454 17.4563 47.5009 17.0983 48.1313 16.4649C48.7617 15.8315 49.1155 14.9742 49.1155 14.0806V3.99749C49.1134 3.10527 48.7586 2.25009 48.1284 1.61844C47.4983 0.986781 46.644 0.629897 45.7518 0.62561ZM39.4874 10.0344V13.2844H37.2612V4.76936H40.7143C40.9875 4.76974 41.26 4.79971 41.5268 4.85874C42.0722 4.95473 42.5651 5.24299 42.9162 5.67124C43.3138 6.1558 43.5243 6.76705 43.5093 7.39374C43.5264 7.72577 43.4754 8.0578 43.3594 8.36939C43.2434 8.68099 43.0649 8.96556 42.8349 9.20561C42.7055 9.3328 42.5576 9.43963 42.3962 9.52249C42.1624 9.6599 41.9068 9.75609 41.6405 9.80686L44.3218 13.3087H41.608L39.4874 10.0344ZM22.1649 13.2844H18.9149V4.76936H22.1649C22.4606 4.76974 22.7551 4.80519 23.0424 4.87499C23.0771 4.8667 23.1133 4.8667 23.148 4.87499C23.5867 4.98855 24.0019 5.17831 24.3749 5.43561C25.04 5.86171 25.5743 6.46348 25.9187 7.17436C26.1764 7.71819 26.3174 8.30992 26.3328 8.91153C26.3482 9.51313 26.2376 10.1113 26.008 10.6676C25.7785 11.2239 25.4351 11.726 24.9999 12.1417C24.5647 12.5574 24.0474 12.8774 23.4812 13.0812L23.1155 13.1787H23.0668C22.77 13.2608 22.4645 13.3071 22.1568 13.3169L22.1649 13.2844ZM28.6649 4.74499H32.3618C32.5943 4.75317 32.8255 4.78309 33.0524 4.83436C33.6101 4.93401 34.1173 5.22056 34.4905 5.64686C34.9512 6.18332 35.1921 6.87404 35.1649 7.58061C35.1939 8.25792 35.0061 8.92682 34.6287 9.48999C34.4321 9.74377 34.1874 9.95623 33.9085 10.1152C33.6297 10.2741 33.3222 10.3764 33.0037 10.4162C32.8075 10.4477 32.6092 10.464 32.4105 10.465H30.8749V13.3006H28.6812L28.6649 4.74499ZM8.58803 11.9762C7.9425 11.1494 7.60367 10.1243 7.62928 9.07561C7.59465 7.93017 7.99198 6.81358 8.7424 5.94749C9.18537 5.45853 9.73164 5.07433 10.3416 4.82276C10.9515 4.5712 11.6098 4.45859 12.2687 4.49311C13.193 4.47486 14.0978 4.76028 14.8443 5.30561C15.3927 5.74014 15.8322 6.29653 16.128 6.93061L14.0237 7.76749C13.8807 7.42868 13.6674 7.12406 13.398 6.87374C13.057 6.59345 12.6288 6.44113 12.1874 6.44311C11.7333 6.4335 11.2889 6.57516 10.9241 6.84581C10.5593 7.11645 10.2949 7.50071 10.1724 7.93811C10.029 8.30002 9.95726 8.68634 9.96115 9.07561C9.95424 9.45248 10.0225 9.82695 10.162 10.1771C10.3016 10.5273 10.5095 10.8461 10.7737 11.115C10.9708 11.3187 11.2088 11.4783 11.4721 11.5833C11.7354 11.6884 12.0179 11.7364 12.3012 11.7244C12.5466 11.7374 12.7921 11.7002 13.0227 11.615C13.2532 11.5298 13.4639 11.3983 13.6418 11.2287C13.8822 10.9621 14.0328 10.6268 14.0724 10.27H12.1874V8.57186H16.5749C16.5972 9.34052 16.4873 10.1073 16.2499 10.8387C15.9716 11.6799 15.4195 12.4036 14.6818 12.8944C13.9328 13.3629 13.0624 13.6003 12.1793 13.5769C11.4964 13.6157 10.8142 13.4906 10.1895 13.2122C9.56477 12.9338 9.01569 12.51 8.58803 11.9762Z" fill="white" fill-opacity="0.6"/>
<path d="M39.9019 6.49998H39.4875V8.62873H39.9019C40.2626 8.66158 40.6224 8.55712 40.9094 8.33623C41.0213 8.23364 41.1091 8.10763 41.1667 7.96719C41.2243 7.82675 41.2502 7.67533 41.2425 7.52373C41.2453 7.37875 41.2171 7.23485 41.1596 7.10171C41.1021 6.96857 41.0168 6.84928 40.9094 6.75186C40.616 6.54677 40.2573 6.45709 39.9019 6.49998Z" fill="white" fill-opacity="0.6"/>
</g>
</svg>
