<svg width="98" height="55" viewBox="0 0 98 55" fill="none" xmlns="http://www.w3.org/2000/svg">
<g opacity="0.6">
<g clip-path="url(#clip0_121_5183)">
<path d="M39.2808 27.603C35.0268 27.2211 31.479 30.8198 31.479 34.9909C31.479 39.0887 34.6921 42.4106 38.6556 42.4106H58.75C61.9208 42.4106 64.4912 39.7531 64.4912 36.4748C64.4912 33.6973 62.6434 31.3721 60.1512 30.7246C59.7019 30.6078 59.7019 30.6078 60.1512 30.7246L60.1565 30.7023C59.8469 24.5723 54.7892 19.8624 48.8599 20.1826C44.5034 20.4179 40.6271 23.476 39.2808 27.603Z" fill="#3366CC"/>
<path d="M55.9113 40.5679H53.5896V37.5036C53.5896 34.9472 51.4439 32.8674 48.8064 32.8674C46.1689 32.8674 44.0231 34.9472 44.0231 37.5036V40.5679H41.7014V37.5036C41.7014 33.6698 44.8887 30.5508 48.8064 30.5508C52.724 30.5508 55.9113 33.6698 55.9113 37.5036V40.5679Z" fill="#A3B5BE"/>
<path d="M55.7496 54.0483H41.8632C41.0635 54.0483 40.4153 53.4 40.4153 52.6004V41.5937C40.4153 40.794 41.0635 40.1458 41.8632 40.1458H55.7496C56.5492 40.1458 57.1975 40.794 57.1975 41.5937V52.6004C57.1975 53.4 56.5492 54.0483 55.7496 54.0483Z" fill="#67C7A5"/>
<path d="M50.8781 45.709C50.8781 44.58 49.9505 43.6648 48.8063 43.6648C47.662 43.6648 46.7344 44.58 46.7344 45.709C46.7344 46.3778 47.0599 46.9715 47.5631 47.3444V50.3962H50.0493V47.3444C50.5526 46.9715 50.8781 46.3778 50.8781 45.709Z" fill="white" fill-opacity="0.6"/>
</g>
<rect x="0.390381" width="97.6097" height="17.7472" rx="5" fill="#9F9F9F"/>
<path d="M7.21583 4.8254H10.1088C10.5122 4.8254 10.8935 4.86207 11.2528 4.9354C11.6122 5.00874 11.9238 5.13707 12.1878 5.3204C12.4592 5.4964 12.6718 5.7384 12.8258 6.0464C12.9872 6.34707 13.0678 6.7284 13.0678 7.1904C13.0678 7.64507 12.9945 8.0264 12.8478 8.3344C12.7012 8.6424 12.4995 8.88807 12.2428 9.0714C11.9862 9.25474 11.6818 9.38674 11.3298 9.4674C10.9778 9.54074 10.5965 9.5774 10.1858 9.5774H8.93183V12.6134H7.21583V4.8254ZM8.93183 8.1254H10.0758C10.2298 8.1254 10.3765 8.11074 10.5158 8.0814C10.6625 8.05207 10.7908 8.0044 10.9008 7.9384C11.0182 7.86507 11.1098 7.76974 11.1758 7.6524C11.2492 7.52774 11.2858 7.37374 11.2858 7.1904C11.2858 6.9924 11.2382 6.83474 11.1428 6.7174C11.0548 6.59274 10.9375 6.4974 10.7908 6.4314C10.6515 6.3654 10.4938 6.32507 10.3178 6.3104C10.1418 6.2884 9.97316 6.2774 9.81183 6.2774H8.93183V8.1254ZM14.1445 4.8254H17.1585C17.5545 4.8254 17.9285 4.86574 18.2805 4.9464C18.6399 5.01974 18.9515 5.14807 19.2155 5.3314C19.4869 5.5074 19.6995 5.7494 19.8535 6.0574C20.0149 6.35807 20.0955 6.73574 20.0955 7.1904C20.0955 7.7404 19.9525 8.20974 19.6665 8.5984C19.3805 8.97974 18.9625 9.22174 18.4125 9.3244L20.3925 12.6134H18.3355L16.7075 9.5004H15.8605V12.6134H14.1445V4.8254ZM15.8605 8.0484H16.8725C17.0265 8.0484 17.1879 8.04474 17.3565 8.0374C17.5325 8.02274 17.6902 7.98974 17.8295 7.9384C17.9689 7.87974 18.0825 7.79174 18.1705 7.6744C18.2659 7.55707 18.3135 7.39207 18.3135 7.1794C18.3135 6.9814 18.2732 6.82374 18.1925 6.7064C18.1119 6.58907 18.0092 6.50107 17.8845 6.4424C17.7599 6.3764 17.6169 6.3324 17.4555 6.3104C17.2942 6.2884 17.1365 6.2774 16.9825 6.2774H15.8605V8.0484ZM21.2554 4.8254H22.9714V12.6134H21.2554V4.8254ZM23.7622 4.8254H25.7202L27.6452 9.9294H27.6672L29.6252 4.8254H31.4622L28.2502 12.6134H26.8752L23.7622 4.8254ZM34.2388 4.8254H35.6578L39.0458 12.6134H37.1098L36.4388 10.9634H33.4138L32.7648 12.6134H30.8728L34.2388 4.8254ZM34.8988 7.0914L33.9528 9.5114H35.8558L34.8988 7.0914ZM40.3263 6.3434H38.1043V4.8254H44.2643V6.3434H42.0423V12.6134H40.3263V6.3434ZM45.2018 4.8254H50.4928V6.4094H46.9178V7.8614H50.2948V9.4454H46.9178V11.0294H50.6908V12.6134H45.2018V4.8254ZM60.4123 6.8494C60.2437 6.64407 60.0347 6.4864 59.7853 6.3764C59.5433 6.2664 59.261 6.2114 58.9383 6.2114C58.6157 6.2114 58.315 6.27374 58.0363 6.3984C57.765 6.52307 57.5267 6.69907 57.3213 6.9264C57.1233 7.1464 56.9657 7.4104 56.8483 7.7184C56.7383 8.0264 56.6833 8.36007 56.6833 8.7194C56.6833 9.08607 56.7383 9.4234 56.8483 9.7314C56.9657 10.0321 57.1233 10.2961 57.3213 10.5234C57.5193 10.7434 57.7503 10.9157 58.0143 11.0404C58.2857 11.1651 58.5753 11.2274 58.8833 11.2274C59.2353 11.2274 59.547 11.1541 59.8183 11.0074C60.0897 10.8607 60.3133 10.6554 60.4893 10.3914L61.9193 11.4584C61.5893 11.9204 61.1713 12.2614 60.6653 12.4814C60.1593 12.7014 59.6387 12.8114 59.1033 12.8114C58.4947 12.8114 57.9337 12.7161 57.4203 12.5254C56.907 12.3347 56.4633 12.0634 56.0893 11.7114C55.7153 11.3521 55.422 10.9194 55.2093 10.4134C55.004 9.9074 54.9013 9.34274 54.9013 8.7194C54.9013 8.09607 55.004 7.5314 55.2093 7.0254C55.422 6.5194 55.7153 6.0904 56.0893 5.7384C56.4633 5.37907 56.907 5.10407 57.4203 4.9134C57.9337 4.72274 58.4947 4.6274 59.1033 4.6274C59.3233 4.6274 59.5507 4.6494 59.7853 4.6934C60.0273 4.73007 60.262 4.7924 60.4893 4.8804C60.724 4.9684 60.9477 5.08574 61.1603 5.2324C61.373 5.37907 61.5637 5.55874 61.7323 5.7714L60.4123 6.8494ZM62.9156 4.8254H64.6316V11.0294H67.8106V12.6134H62.9156V4.8254ZM68.3398 8.7194C68.3398 8.09607 68.4425 7.5314 68.6478 7.0254C68.8605 6.5194 69.1538 6.0904 69.5278 5.7384C69.9018 5.37907 70.3455 5.10407 70.8588 4.9134C71.3722 4.72274 71.9332 4.6274 72.5418 4.6274C73.1505 4.6274 73.7115 4.72274 74.2248 4.9134C74.7382 5.10407 75.1818 5.37907 75.5558 5.7384C75.9298 6.0904 76.2195 6.5194 76.4248 7.0254C76.6375 7.5314 76.7438 8.09607 76.7438 8.7194C76.7438 9.34274 76.6375 9.9074 76.4248 10.4134C76.2195 10.9194 75.9298 11.3521 75.5558 11.7114C75.1818 12.0634 74.7382 12.3347 74.2248 12.5254C73.7115 12.7161 73.1505 12.8114 72.5418 12.8114C71.9332 12.8114 71.3722 12.7161 70.8588 12.5254C70.3455 12.3347 69.9018 12.0634 69.5278 11.7114C69.1538 11.3521 68.8605 10.9194 68.6478 10.4134C68.4425 9.9074 68.3398 9.34274 68.3398 8.7194ZM70.1218 8.7194C70.1218 9.08607 70.1768 9.4234 70.2868 9.7314C70.4042 10.0321 70.5692 10.2961 70.7818 10.5234C70.9945 10.7434 71.2475 10.9157 71.5408 11.0404C71.8415 11.1651 72.1752 11.2274 72.5418 11.2274C72.9085 11.2274 73.2385 11.1651 73.5318 11.0404C73.8325 10.9157 74.0892 10.7434 74.3018 10.5234C74.5145 10.2961 74.6758 10.0321 74.7858 9.7314C74.9032 9.4234 74.9618 9.08607 74.9618 8.7194C74.9618 8.36007 74.9032 8.0264 74.7858 7.7184C74.6758 7.4104 74.5145 7.1464 74.3018 6.9264C74.0892 6.69907 73.8325 6.52307 73.5318 6.3984C73.2385 6.27374 72.9085 6.2114 72.5418 6.2114C72.1752 6.2114 71.8415 6.27374 71.5408 6.3984C71.2475 6.52307 70.9945 6.69907 70.7818 6.9264C70.5692 7.1464 70.4042 7.4104 70.2868 7.7184C70.1768 8.0264 70.1218 8.36007 70.1218 8.7194ZM84.4772 9.6104C84.4772 10.0724 84.4075 10.4977 84.2682 10.8864C84.1288 11.2751 83.9198 11.6124 83.6412 11.8984C83.3698 12.1844 83.0288 12.4081 82.6182 12.5694C82.2075 12.7307 81.7345 12.8114 81.1992 12.8114C80.6565 12.8114 80.1798 12.7307 79.7692 12.5694C79.3585 12.4081 79.0138 12.1844 78.7352 11.8984C78.4638 11.6124 78.2585 11.2751 78.1192 10.8864C77.9798 10.4977 77.9102 10.0724 77.9102 9.6104V4.8254H79.6262V9.5444C79.6262 9.7864 79.6628 10.0101 79.7362 10.2154C79.8168 10.4207 79.9268 10.6004 80.0662 10.7544C80.2055 10.9011 80.3705 11.0184 80.5612 11.1064C80.7592 11.1871 80.9718 11.2274 81.1992 11.2274C81.4265 11.2274 81.6355 11.1871 81.8262 11.1064C82.0168 11.0184 82.1818 10.9011 82.3212 10.7544C82.4605 10.6004 82.5668 10.4207 82.6402 10.2154C82.7208 10.0101 82.7612 9.7864 82.7612 9.5444V4.8254H84.4772V9.6104ZM86.0635 4.8254H88.6375C89.2608 4.8254 89.8512 4.89507 90.4085 5.0344C90.9732 5.17374 91.4645 5.40107 91.8825 5.7164C92.3005 6.0244 92.6305 6.42774 92.8725 6.9264C93.1218 7.42507 93.2465 8.03007 93.2465 8.7414C93.2465 9.37207 93.1255 9.9294 92.8835 10.4134C92.6488 10.8901 92.3298 11.2934 91.9265 11.6234C91.5232 11.9461 91.0575 12.1917 90.5295 12.3604C90.0015 12.5291 89.4478 12.6134 88.8685 12.6134H86.0635V4.8254ZM87.7795 11.0294H88.6705C89.0665 11.0294 89.4332 10.9891 89.7705 10.9084C90.1152 10.8277 90.4122 10.6957 90.6615 10.5124C90.9108 10.3217 91.1052 10.0761 91.2445 9.7754C91.3912 9.4674 91.4645 9.0934 91.4645 8.6534C91.4645 8.27207 91.3912 7.94207 91.2445 7.6634C91.1052 7.3774 90.9145 7.14274 90.6725 6.9594C90.4305 6.77607 90.1445 6.6404 89.8145 6.5524C89.4918 6.45707 89.1508 6.4094 88.7915 6.4094H87.7795V11.0294Z" fill="black"/>
</g>
<defs>
<clipPath id="clip0_121_5183">
<rect width="33.881" height="33.881" fill="white" transform="translate(31.0447 20.1672)"/>
</clipPath>
</defs>
</svg>
