<svg width="27" height="26" viewBox="0 0 27 26" fill="none" xmlns="http://www.w3.org/2000/svg">
<g clip-path="url(#clip0_121_5200)">
<path d="M7.41923 13.1999C7.43311 13.4647 7.55163 13.7132 7.74873 13.8907C7.94582 14.0682 8.20534 14.1601 8.47019 14.1462L14.462 13.8322C14.7268 13.8183 14.9753 13.6998 15.1528 13.5027C15.3302 13.3056 15.4221 13.046 15.4083 12.7812C15.3944 12.5163 15.2759 12.2679 15.0788 12.0904C14.8817 11.9129 14.6222 11.821 14.3573 11.8349L8.36552 12.1489C8.10067 12.1628 7.85218 12.2813 7.67471 12.4784C7.49725 12.6755 7.40535 12.935 7.41923 13.1999ZM9.5735 16.0911L6.57761 16.2481C5.78305 16.2897 5.00449 16.014 4.41321 15.4817C3.82192 14.9493 3.46635 14.2038 3.42471 13.4092C3.38307 12.6147 3.65877 11.8361 4.19116 11.2448C4.72356 10.6535 5.46903 10.298 6.26359 10.2563L9.25948 10.0993C9.52433 10.0854 9.77282 9.96692 9.95029 9.76982C10.1278 9.57273 10.2197 9.31321 10.2058 9.04836C10.1919 8.7835 10.0734 8.53501 9.87627 8.35755C9.67918 8.18008 9.41966 8.08818 9.15481 8.10206L6.15892 8.25907C4.83465 8.32847 3.5922 8.9211 2.70487 9.90657C1.81755 10.892 1.35805 12.1896 1.42745 13.5139C1.49685 14.8382 2.08947 16.0806 3.07495 16.9679C4.06042 17.8553 5.35801 18.3148 6.68228 18.2454L9.67817 18.0884C9.94302 18.0745 10.1915 17.956 10.369 17.7589C10.5464 17.5618 10.6383 17.3022 10.6245 17.0374C10.6106 16.7725 10.4921 16.5241 10.295 16.3466C10.0979 16.1691 9.83835 16.0772 9.5735 16.0911ZM16.1452 7.73571L13.1493 7.89272C12.8845 7.9066 12.636 8.02513 12.4585 8.22222C12.2811 8.41931 12.1892 8.67883 12.203 8.94369C12.2169 9.20854 12.3354 9.45703 12.5325 9.63449C12.7296 9.81196 12.9891 9.90386 13.254 9.88998L16.2499 9.73297C17.0444 9.69133 17.823 9.96703 18.4143 10.4994C19.0056 11.0318 19.3611 11.7773 19.4028 12.5719C19.4444 13.3664 19.1687 14.145 18.6363 14.7363C18.1039 15.3275 17.3585 15.6831 16.5639 15.7247L13.568 15.8818C13.3032 15.8956 13.0547 16.0142 12.8772 16.2113C12.6997 16.4084 12.6078 16.6679 12.6217 16.9327C12.6356 17.1976 12.7541 17.4461 12.9512 17.6235C13.1483 17.801 13.4078 17.8929 13.6727 17.879L16.6686 17.722C17.9928 17.6526 19.2353 17.06 20.1226 16.0745C21.0099 15.089 21.4694 13.7914 21.4 12.4672C21.3306 11.1429 20.738 9.90046 19.7525 9.01314C18.7671 8.12581 17.4695 7.66631 16.1452 7.73571Z" fill="white"/>
</g>
<defs>
<clipPath id="clip0_121_5200">
<rect width="24" height="24" fill="white" transform="translate(0.799438 1.5304) rotate(-3)"/>
</clipPath>
</defs>
</svg>
