<svg width="28" height="28" viewBox="0 0 28 28" fill="none" xmlns="http://www.w3.org/2000/svg">
<path d="M7.58333 13.4167C7.58333 11.0833 7.35 9.68333 6.41667 8.75C5.48333 7.81667 4.08333 7.58333 1.75 7.58333C4.08333 7.58333 5.48333 7.35 6.41667 6.41667C7.35 5.48333 7.58333 4.08333 7.58333 1.75C7.58333 4.08333 7.81667 5.48333 8.75 6.41667C9.68333 7.35 11.0833 7.58333 13.4167 7.58333C11.0833 7.58333 9.68333 7.81667 8.75 8.75C7.81667 9.68333 7.58333 11.0833 7.58333 13.4167ZM15.75 6.41667C15.8667 5.71667 15.6333 5.13333 15.2833 4.55C14.7 4.2 14.1167 3.96667 13.4167 4.08333C14.1167 4.2 14.7 3.96667 15.2833 3.61667C15.6333 3.03333 15.8667 2.45 15.75 1.75C15.6333 2.45 15.8667 3.03333 16.2167 3.61667C16.8 3.96667 17.3833 4.2 18.0833 4.08333C17.3833 3.96667 16.8 4.2 16.2167 4.55C15.8667 5.13333 15.6333 5.71667 15.75 6.41667Z" stroke="#6A6A6A" stroke-linecap="round" stroke-linejoin="round"/>
<path d="M7.93335 10.3833L23.3333 25.7833C24.0333 26.4833 25.2 26.3667 25.7833 25.6667C26.3667 24.9667 26.3667 23.9167 25.7833 23.3333L10.3833 7.93335M17.0333 14.4667L14.4667 17.0333" stroke="#6A6A6A" stroke-linecap="round" stroke-linejoin="round"/>
</svg>
