<svg width="119" height="119" viewBox="0 0 119 119" fill="none" xmlns="http://www.w3.org/2000/svg">
<path d="M114.042 52.5583L108.34 49.0875C104.869 47.1042 103.629 42.8896 105.117 39.1708L107.596 32.9729C109.827 27.5187 105.613 21.5687 99.6625 21.8167L92.9688 22.3125C89.0021 22.5604 85.5313 20.0812 84.5396 16.1146L82.8042 9.91666C81.3167 4.21458 74.375 1.73541 69.9125 5.70208L64.7063 9.91666C63.2188 11.1562 61.2355 11.9 59.5 11.9C57.7646 11.9 55.7813 11.4042 54.2938 9.91666L49.0875 5.45416C44.625 1.73541 37.6834 3.96666 36.1959 9.91666L34.7084 16.3625C33.7167 20.0812 30.2459 22.8083 26.2792 22.5604L19.5855 22.0646C13.6355 21.5687 9.17296 27.5187 11.6521 33.2208L14.1313 39.4187C15.6188 43.1375 14.3792 47.3521 10.9084 49.3354L4.95837 52.5583C4.07696e-05 55.7812 4.07696e-05 63.2187 4.95837 66.4417L10.6605 69.9125C14.1313 71.8958 15.3709 76.1104 13.8834 79.8292L11.4042 86.0271C9.17296 91.4812 13.3875 97.4312 19.3375 97.1833L26.0313 96.6875C29.998 96.4396 33.4688 98.9187 34.4605 102.885L35.948 109.331C37.4355 115.033 44.3771 117.512 48.8396 113.546L54.0459 109.083C55.5334 107.844 57.5167 107.1 59.2521 107.1C60.9875 107.1 62.9709 107.844 64.4584 109.083L69.6646 113.546C74.1271 117.512 81.3167 115.033 82.5563 109.331L84.0438 102.885C85.0355 99.1667 88.5063 96.4396 92.4729 96.6875L99.1667 97.1833C105.117 97.6792 109.579 91.7292 107.1 86.0271L104.621 79.8292C103.133 76.1104 104.373 71.8958 107.844 69.9125L113.546 66.4417C119 63.2187 119 55.7812 114.042 52.5583Z" fill="#232323"/>
</svg>
